<?xml version="1.0" standalone="no"?>
<!DOCTYPE svg PUBLIC "-//W3C//DTD SVG 20010904//EN"
 "http://www.w3.org/TR/2001/REC-SVG-20010904/DTD/svg10.dtd">
<svg version="1.0" xmlns="http://www.w3.org/2000/svg"
 width="737.000000pt" height="737.000000pt" viewBox="0 0 737.000000 737.000000"
 preserveAspectRatio="xMidYMid meet">
<metadata>
Created by potrace 1.14, written by Peter Selinger 2001-2017
</metadata>
<g transform="translate(0.000000,737.000000) scale(0.100000,-0.100000)"
fill="#000000" stroke="none">
<path d="M0 5864 c0 -1429 1 -1505 18 -1500 9 3 48 8 86 11 38 3 73 8 77 11 4
2 45 6 91 9 46 3 97 8 113 11 17 3 54 7 83 9 29 1 59 9 68 16 13 10 17 10 25
-2 7 -11 9 -11 9 4 0 11 8 17 24 17 13 0 26 5 28 12 3 7 11 9 24 4 20 -9 57
-12 227 -20 59 -3 112 -8 117 -11 5 -3 11 -1 14 4 5 8 49 7 94 -4 12 -3 22 -2
22 2 0 12 53 13 66 2 6 -5 19 -7 27 -3 9 3 24 1 34 -5 17 -10 16 -10 -4 -11
-12 0 -25 -5 -28 -10 -4 -6 8 -8 32 -4 21 3 73 5 117 4 56 -1 83 3 95 14 9 8
27 14 41 14 14 0 45 5 70 10 156 34 185 36 407 37 149 0 231 -4 230 -10 -3
-14 62 -13 67 2 3 6 0 14 -7 16 -7 2 11 8 38 12 28 4 70 14 95 21 31 10 83 14
167 12 68 -2 124 0 126 5 1 5 18 4 37 -1 31 -9 32 -10 10 -13 -42 -4 -45 -4
-58 -12 -7 -5 -21 -6 -31 -2 -24 7 -57 -5 -41 -15 23 -14 -2 -32 -39 -29 -43
3 -124 -18 -116 -31 5 -8 92 -26 107 -22 4 1 4 -8 -1 -20 -9 -25 13 -78 33
-78 7 0 24 -11 37 -24 13 -13 33 -26 44 -29 20 -6 110 -9 170 -5 17 1 44 -2
60 -5 17 -4 66 -12 109 -17 43 -5 84 -14 90 -19 6 -4 32 -11 59 -14 26 -4 64
-15 85 -26 36 -19 37 -20 13 -28 -21 -8 -17 -11 32 -22 31 -7 67 -21 80 -32
14 -10 30 -19 35 -19 5 0 12 -6 15 -13 2 -7 17 -13 32 -15 16 -1 33 -6 39 -11
6 -4 28 -14 48 -20 20 -7 51 -28 68 -48 l31 -35 -28 -24 c-15 -13 -24 -24 -19
-24 5 0 17 7 26 15 13 11 23 13 41 6 23 -9 22 -10 -21 -31 l-45 -21 70 5 c66
4 139 -6 177 -25 9 -4 87 -6 175 -4 87 2 163 0 168 -5 6 -4 21 -10 35 -12 14
-3 45 -13 70 -21 25 -9 82 -24 128 -34 45 -9 82 -20 82 -24 0 -10 79 -22 150
-22 227 1 476 13 523 27 29 8 89 22 135 30 46 9 92 21 104 27 12 6 42 13 67
16 91 8 137 11 181 12 l45 2 -35 15 c-19 8 -43 13 -52 10 -10 -2 -18 -1 -18 3
0 4 -13 12 -30 18 -30 11 -42 43 -16 43 8 0 13 8 11 18 -2 9 -4 20 -4 24 -1 3
-9 9 -18 11 -11 3 -6 5 12 6 93 6 135 5 135 -2 0 -5 9 -6 19 -2 26 8 125 24
190 31 38 4 51 3 47 -5 -4 -6 0 -11 8 -11 9 0 16 4 16 9 0 16 42 20 64 6 13
-9 27 -11 35 -6 17 11 41 3 41 -13 0 -15 7 -16 98 -19 37 -1 73 -6 80 -10 8
-5 12 -3 12 7 0 20 30 21 55 2 11 -8 26 -11 34 -8 10 4 13 1 8 -11 -3 -9 -3
-16 1 -16 19 3 25 -2 12 -11 -27 -17 1 -24 30 -7 26 16 32 16 77 2 26 -9 56
-20 66 -26 10 -5 27 -7 38 -4 14 5 19 1 20 -12 0 -10 3 -13 5 -7 5 12 40 8 59
-6 6 -4 20 -6 32 -5 14 1 19 -3 16 -12 -4 -9 4 -13 22 -13 22 0 25 -3 16 -14
-9 -10 -8 -15 3 -19 10 -4 16 2 19 16 l4 22 2 -22 c1 -18 7 -22 39 -21 47 0
102 -11 102 -21 0 -4 6 -8 13 -9 36 -4 109 -30 97 -35 -8 -3 -1 -6 17 -6 17
-1 35 -6 39 -12 3 -6 16 -8 28 -5 11 2 30 -2 41 -10 12 -9 30 -12 52 -8 20 4
33 2 33 -4 0 -6 20 -17 45 -25 l45 -16 0 1865 0 1864 -3685 0 -3685 0 0 -1506z
m2240 -1146 c0 -4 -6 -5 -14 -2 -8 3 -12 12 -9 21 5 12 7 12 14 1 5 -7 9 -16
9 -20z m60 23 c24 -7 24 -7 -9 -14 -34 -7 -51 -3 -51 14 0 10 23 10 60 0z m95
-11 c4 -6 -7 -10 -27 -10 -25 0 -29 3 -18 10 19 13 37 13 45 0z m-95 -110 c0
-5 -5 -10 -11 -10 -5 0 -7 5 -4 10 3 6 8 10 11 10 2 0 4 -4 4 -10z m3217 -696
c-3 -3 -12 -4 -19 -1 -8 3 -5 6 6 6 11 1 17 -2 13 -5z"/>
<path d="M2305 4470 c3 -5 8 -10 11 -10 2 0 4 5 4 10 0 6 -5 10 -11 10 -5 0
-7 -4 -4 -10z"/>
<path d="M1058 4393 c7 -3 16 -2 19 1 4 3 -2 6 -13 5 -11 0 -14 -3 -6 -6z"/>
<path d="M5715 3685 c-46 -8 -76 -9 -88 -3 -20 10 -104 2 -127 -12 -62 -38
201 -36 311 2 23 8 27 13 17 19 -16 11 -26 10 -113 -6z"/>
<path d="M4317 3343 c-2 -5 -5 -98 -5 -208 -1 -110 -5 -293 -8 -406 l-7 -206
-386 3 c-346 3 -393 6 -456 23 -86 24 -265 85 -292 99 -11 6 -37 13 -59 16
-71 9 -184 36 -213 50 -17 9 -42 13 -68 9 -25 -3 -43 -1 -47 6 -4 6 -31 11
-59 11 -29 1 -72 5 -97 10 -59 13 -397 39 -845 65 -55 3 -140 10 -190 16 -49
5 -137 11 -195 14 -58 3 -152 10 -210 15 -58 5 -143 12 -190 15 -47 4 -137 10
-200 16 -63 5 -158 12 -210 15 -119 6 -178 12 -255 24 -33 5 -120 12 -193 15
l-132 6 0 -1476 0 -1475 3685 0 3685 0 0 1278 0 1277 -433 2 c-459 2 -543 -10
-162 -22 127 -4 250 -10 274 -14 64 -9 -472 -5 -551 4 -43 5 -77 4 -99 -4 -25
-9 -34 -8 -41 1 -5 9 -10 10 -15 3 -6 -8 -320 -11 -990 -11 l-983 -1 0 359 c0
343 1 358 19 358 14 0 18 -7 17 -27 -1 -25 3 -28 29 -28 27 0 30 3 33 37 3 34
0 39 -30 52 -30 12 -31 14 -13 22 23 9 44 34 45 52 0 21 -74 11 -78 -10 -2
-11 3 -18 12 -18 9 0 16 -5 16 -11 0 -24 -35 -2 -38 24 -3 22 -8 27 -32 27
-16 0 -31 -3 -33 -7z m133 -1027 c0 -11 -19 -15 -25 -6 -3 5 1 10 9 10 9 0 16
-2 16 -4z"/>
</g>
</svg>
